<?xml version="1.0" standalone="no"?>
<!DOCTYPE svg PUBLIC "-//W3C//DTD SVG 20010904//EN"
 "http://www.w3.org/TR/2001/REC-SVG-20010904/DTD/svg10.dtd">
<svg version="1.0" xmlns="http://www.w3.org/2000/svg"
 width="1024.000000pt" height="1024.000000pt" viewBox="0 0 1024.000000 1024.000000"
 preserveAspectRatio="xMidYMid meet">

<g transform="translate(0.000000,1024.000000) scale(0.100000,-0.100000)"
fill="#000000" stroke="none">
<path d="M2174 7050 c-83 -18 -130 -73 -178 -204 -43 -120 -6 -111 -454 -112
-417 -1 -421 -1 -509 -57 -55 -35 -101 -91 -137 -167 l-31 -65 0 -1210 0
-1210 32 -67 c39 -82 106 -151 181 -186 l57 -27 589 -3 589 -2 -7 57 c-10 92
-43 177 -87 227 -65 74 -116 79 -324 35 -254 -53 -345 9 -345 240 0 75 -3 86
-26 114 -23 28 -26 38 -21 83 5 48 3 54 -24 80 -34 33 -35 43 -9 112 11 29 20
61 20 73 0 37 -41 65 -115 78 -90 16 -121 33 -135 75 -21 63 3 133 105 306 66
113 105 227 105 310 0 144 35 292 102 424 61 122 113 193 217 296 53 52 95 99
93 103 -1 5 2 6 8 2 5 -3 29 7 52 23 125 85 290 158 438 194 83 20 121 22 300
22 191 0 212 -1 308 -27 252 -66 437 -173 608 -349 96 -99 150 -176 209 -301
92 -191 127 -391 106 -596 -25 -248 -95 -424 -251 -631 -39 -52 -83 -120 -98
-150 -25 -51 -27 -64 -27 -185 1 -126 6 -160 52 -310 5 -17 4 -18 -9 -8 -8 7
-19 9 -24 5 -4 -4 -3 0 3 8 7 9 7 23 2 38 -11 28 -23 29 -14 1 6 -19 5 -20
-17 -9 -21 10 -21 10 -5 -3 22 -18 22 -23 -3 -30 -11 -3 -20 -11 -20 -17 0 -9
4 -10 13 -2 15 13 57 5 57 -10 0 -6 6 -8 14 -5 9 4 20 -10 32 -41 11 -26 21
-50 22 -54 2 -5 -5 -8 -15 -7 -11 0 -13 3 -5 6 10 4 8 8 -5 18 -10 8 -18 24
-18 36 0 12 -6 24 -14 27 -8 3 -11 0 -7 -6 7 -12 -19 -23 -39 -16 -18 7 -20
-7 -2 -26 10 -12 9 -12 -5 -1 -16 12 -22 55 -7 45 11 -6 21 14 14 26 -8 12
-41 -21 -40 -40 1 -9 5 -22 10 -30 8 -13 6 -13 -8 -1 -9 7 -17 9 -17 4 0 -15
22 -32 35 -27 7 3 16 1 20 -5 3 -7 0 -8 -9 -5 -9 3 -16 1 -16 -5 0 -20 -20
-12 -29 12 -5 12 -12 22 -17 22 -5 0 -8 9 -7 20 2 11 0 14 -3 8 -3 -7 -15 -13
-25 -13 -11 0 -17 -5 -14 -10 3 -6 2 -10 -3 -10 -14 0 -23 28 -10 32 13 5 1
48 -13 48 -6 0 -7 -4 -4 -10 3 -5 -3 -10 -15 -10 -12 0 -19 -4 -16 -9 3 -5 16
-7 29 -4 22 6 21 6 -3 -16 -16 -14 -19 -21 -8 -18 10 4 18 -2 22 -16 3 -12 3
-23 1 -26 -3 -2 -5 1 -5 8 0 7 -4 10 -9 7 -5 -3 -7 -15 -4 -26 3 -12 0 -20 -6
-20 -7 0 -10 4 -6 9 3 5 1 13 -5 16 -8 5 -7 11 1 21 7 8 7 14 1 14 -16 0 -24
-33 -10 -42 11 -7 5 -11 -12 -10 -3 0 -6 -8 -7 -18 -2 -25 18 -39 42 -29 19 7
19 8 -2 8 -25 1 -39 16 -23 26 5 3 10 2 10 -3 0 -5 9 -12 20 -15 25 -6 26 -27
2 -27 -10 0 -23 -12 -29 -27 l-12 -28 6 29 c4 21 3 27 -6 22 -7 -4 -10 -2 -9
5 2 6 -2 13 -9 16 -6 2 -10 -4 -9 -14 2 -10 1 -13 -1 -7 -6 16 -43 25 -43 11
0 -7 -7 -4 -14 6 -9 12 -16 14 -21 7 -3 -5 -11 -8 -16 -4 -6 3 -3 12 8 20 10
8 14 13 8 12 -18 -4 -55 22 -55 40 0 14 -2 14 -9 3 -6 -9 -2 -21 13 -35 11
-12 21 -28 21 -36 0 -8 11 -16 25 -18 14 -2 29 -8 35 -13 5 -5 14 -9 20 -9 5
0 3 5 -5 10 -9 6 -10 10 -3 10 19 0 26 -20 9 -26 -9 -3 -16 -10 -16 -15 0 -4
8 -5 18 -2 14 6 15 4 5 -9 -7 -8 -11 -17 -8 -19 2 -3 -5 -5 -16 -6 -17 -2 -18
1 -9 13 9 10 9 14 1 14 -6 0 -10 3 -10 8 4 23 -4 32 -26 32 -14 0 -29 8 -35
21 -11 19 -13 19 -35 5 -18 -12 -25 -12 -28 -3 -3 7 -6 5 -6 -5 -1 -10 6 -18
14 -18 8 0 15 5 15 11 0 6 5 7 13 2 6 -4 17 -8 22 -8 6 -1 9 -6 8 -12 -1 -6 3
-10 10 -10 31 1 44 -4 44 -18 0 -13 -2 -13 -16 -1 -19 17 -51 4 -51 -19 0 -8
-7 -15 -15 -15 -9 0 -12 6 -9 15 4 9 0 15 -10 15 -9 0 -16 -4 -16 -9 0 -28 37
-31 516 -31 419 -1 496 2 534 15 119 42 214 142 244 257 15 58 17 166 14 1253
l-3 1190 -27 57 c-33 72 -102 146 -169 182 -67 37 -124 41 -541 41 -185 0
-334 3 -331 8 2 4 -2 10 -11 13 -8 3 -22 24 -31 47 -38 95 -68 156 -76 152 -4
-3 -11 0 -15 6 -4 8 -3 9 4 5 27 -16 9 15 -20 37 -72 53 -52 52 -538 53 -250
0 -469 -2 -486 -6z m779 -17 c-7 -2 -19 -2 -25 0 -7 3 -2 5 12 5 14 0 19 -2
13 -5z m-768 -13 c3 -6 -1 -7 -9 -4 -18 7 -21 14 -7 14 6 0 13 -4 16 -10z m59
-29 c-2 -3 -12 3 -22 13 -16 17 -16 18 5 5 12 -7 20 -15 17 -18z m-429 -281
c3 -5 1 -10 -4 -10 -6 0 -11 5 -11 10 0 6 2 10 4 10 3 0 8 -4 11 -10z m87 -15
c-2 -14 -6 -25 -7 -25 -1 0 -5 11 -7 25 -3 16 -1 25 7 25 8 0 10 -9 7 -25z
m1613 15 c3 -5 1 -10 -4 -10 -6 0 -11 5 -11 10 0 6 2 10 4 10 3 0 8 -4 11 -10z
m-2475 -54 c0 -3 -4 -8 -10 -11 -5 -3 -10 -1 -10 4 0 6 5 11 10 11 6 0 10 -2
10 -4z m1870 -26 c0 -5 -2 -10 -4 -10 -3 0 -8 5 -11 10 -3 6 -1 10 4 10 6 0
11 -4 11 -10z m355 -48 c-3 -3 -11 0 -18 7 -9 10 -8 11 6 5 10 -3 15 -9 12
-12z m-2258 2 c-3 -3 -12 -4 -19 -1 -8 3 -5 6 6 6 11 1 17 -2 13 -5z m2550
-2630 c-3 -3 -12 -4 -19 -1 -8 3 -5 6 6 6 11 1 17 -2 13 -5z m-112 -52 c-6 -7
-35 18 -35 31 0 5 9 2 20 -8 11 -10 18 -20 15 -23z m17 -19 c-6 -2 -9 -10 -6
-15 4 -7 2 -8 -5 -4 -13 9 -5 26 12 25 9 0 8 -2 -1 -6z m32 -8 c3 -8 1 -15 -4
-15 -6 0 -10 7 -10 15 0 8 2 15 4 15 2 0 6 -7 10 -15z m-79 -33 c-3 -3 -11 0
-18 7 -9 10 -8 11 6 5 10 -3 15 -9 12 -12z m40 -2 c4 -6 2 -17 -4 -24 -6 -7
-9 -16 -6 -19 3 -4 2 -5 -2 -2 -3 3 -12 -3 -20 -13 -8 -9 -5 -1 6 20 16 27 18
37 9 41 -9 4 -9 6 -1 6 6 1 15 -4 18 -9z m85 0 c0 -5 -5 -10 -11 -10 -5 0 -7
5 -4 10 3 6 8 10 11 10 2 0 4 -4 4 -10z m80 -10 c-6 -11 -18 -20 -28 -19 -14
0 -14 2 -2 6 8 3 19 12 23 19 13 22 19 16 7 -6z m48 -41 c-3 -8 -7 -3 -11 10
-4 17 -3 21 5 13 5 -5 8 -16 6 -23z m-171 -1 c-3 -8 -6 -5 -6 6 -1 11 2 17 5
13 3 -3 4 -12 1 -19z m-187 -3 c0 -8 -2 -15 -4 -15 -2 0 -6 7 -10 15 -3 8 -1
15 4 15 6 0 10 -7 10 -15z m301 -8 c-10 -9 -11 -8 -5 6 3 10 9 15 12 12 3 -3
0 -11 -7 -18z m-410 -25 c-28 -4 -40 6 -21 18 9 6 20 4 29 -3 12 -10 11 -13
-8 -15z m216 2 c-3 -3 -12 -4 -19 -1 -8 3 -5 6 6 6 11 1 17 -2 13 -5z m180 0
c-3 -3 -12 -4 -19 -1 -8 3 -5 6 6 6 11 1 17 -2 13 -5z"/>
<path d="M8398 6593 c-32 -20 -51 -61 -50 -106 2 -72 57 -114 138 -104 101 11
141 122 70 193 -29 29 -40 34 -82 34 -28 0 -61 -8 -76 -17z"/>
<path d="M4930 6025 l0 -546 98 3 97 3 0 540 0 540 -97 3 -98 3 0 -546z"/>
<path d="M2590 6366 c-112 -31 -208 -102 -265 -195 -35 -56 -39 -59 -85 -65
-120 -16 -223 -70 -312 -164 -247 -259 -149 -668 190 -795 53 -20 79 -21 395
-25 l337 -3 0 -129 c0 -71 5 -141 11 -157 5 -15 30 -48 54 -73 l44 -45 3 -235
c4 -189 8 -241 20 -265 15 -27 64 -77 216 -218 29 -27 52 -54 52 -60 0 -7 -4
-7 -12 1 -7 7 -17 12 -23 12 -5 0 -2 -5 8 -11 13 -8 17 -18 13 -35 -4 -13 -2
-24 3 -24 5 0 11 10 13 23 2 18 8 21 36 19 17 -2 32 0 33 5 0 4 2 16 4 26 2 9
0 17 -3 18 -4 0 -15 2 -24 4 -10 2 -20 -1 -24 -6 -3 -5 5 -9 18 -10 22 0 22
-1 3 -9 -28 -12 -37 -12 -30 0 3 6 -1 10 -9 10 -9 0 -16 4 -16 10 0 5 7 6 17
3 12 -5 14 -3 8 7 -5 9 -4 11 3 6 18 -11 14 15 -5 37 -11 13 -12 17 -4 12 11
-6 13 -4 8 7 -3 9 -1 20 5 26 13 13 -9 55 -24 46 -7 -5 -8 -2 -3 6 5 8 -19 37
-74 89 l-81 76 0 225 c0 253 -5 274 -74 339 l-36 35 0 117 0 118 153 3 c141 3
156 5 210 30 110 52 199 162 226 279 17 73 13 190 -9 261 -40 129 -157 248
-283 287 -59 18 -63 21 -78 63 -58 162 -185 281 -344 323 -70 18 -202 18 -265
1z m415 -1914 c-3 -3 -11 0 -18 7 -9 10 -8 11 6 5 10 -3 15 -9 12 -12z m75
-36 c0 -3 -4 -8 -10 -11 -5 -3 -10 -1 -10 4 0 6 5 11 10 11 6 0 10 -2 10 -4z
m-54 -121 c-9 -9 -16 -13 -16 -8 0 12 22 34 28 28 2 -2 -3 -11 -12 -20z m64
-19 c0 -2 -7 -7 -16 -10 -8 -3 -12 -2 -9 4 6 10 25 14 25 6z m35 -46 c10 -11
16 -20 13 -20 -3 0 -13 9 -23 20 -10 11 -16 20 -13 20 3 0 13 -9 23 -20z m-60
-61 c11 -16 1 -19 -13 -3 -7 8 -8 14 -3 14 5 0 13 -5 16 -11z m46 -16 c13 -16
12 -17 -3 -4 -17 13 -22 21 -14 21 2 0 10 -8 17 -17z m-5 -32 c-8 -12 19 -33
29 -23 5 4 5 1 1 -5 -4 -7 -2 -13 3 -13 6 0 11 5 11 12 0 6 2 9 5 6 3 -3 3
-13 -1 -22 -6 -15 -10 -14 -35 10 -30 29 -36 44 -18 44 5 0 8 -4 5 -9z m34 5
c0 -3 -4 -8 -10 -11 -5 -3 -10 -1 -10 4 0 6 5 11 10 11 6 0 10 -2 10 -4z m47
-31 c0 -8 -4 -15 -9 -15 -10 0 -11 14 -1 23 9 10 10 9 10 -8z m53 -7 c0 -11
-12 -10 -30 2 -12 7 -10 9 8 7 12 0 22 -5 22 -9z m-2 -26 c8 8 12 9 12 1 0
-22 -30 -22 -40 0 -10 20 -10 20 3 5 10 -13 16 -15 25 -6z m-51 -11 c-1 -15
-4 -17 -14 -9 -15 12 -17 22 -3 13 6 -3 10 -1 10 4 0 6 2 11 4 11 3 0 4 -9 3
-19z m57 -36 c11 -8 15 -15 9 -15 -7 0 -14 4 -18 10 -3 5 -12 7 -20 3 -8 -3
-15 0 -15 6 0 15 21 13 44 -4z"/>
<path d="M6812 6270 c-40 -11 -97 -32 -125 -47 l-52 -28 3 -75 c1 -41 6 -78
10 -82 4 -4 37 8 74 27 177 89 339 60 355 -63 l6 -42 -94 0 c-181 0 -287 -33
-348 -107 -88 -106 -62 -287 51 -356 92 -57 253 -42 356 33 l42 30 0 -34 c0
-19 6 -36 13 -39 6 -2 49 -2 95 1 l82 5 0 271 c0 330 -5 355 -84 432 -63 61
-121 84 -231 90 -59 3 -99 -1 -153 -16z m268 -506 c0 -52 -3 -60 -35 -89 -44
-42 -94 -59 -158 -52 -64 6 -97 39 -97 96 0 71 57 98 208 100 l82 1 0 -56z"/>
<path d="M7653 6275 c-229 -71 -331 -352 -213 -585 33 -66 113 -144 177 -172
98 -43 229 -33 319 23 25 17 49 28 52 25 9 -9 -17 -117 -36 -150 -52 -91 -217
-100 -389 -21 l-53 24 -41 -70 c-22 -39 -38 -77 -35 -85 16 -43 227 -104 361
-105 207 -2 325 83 383 276 12 40 16 123 18 410 2 198 0 375 -3 393 l-5 33
-92 -3 -91 -3 -5 -40 c-3 -26 -8 -36 -13 -27 -14 20 -78 57 -131 75 -59 20
-144 21 -203 2z m252 -196 c26 -13 58 -36 71 -52 22 -26 24 -37 24 -137 0
-109 0 -109 -32 -146 -18 -21 -51 -45 -73 -55 -71 -33 -175 -19 -228 29 -74
67 -88 247 -25 327 53 67 167 82 263 34z"/>
<path d="M5624 6267 c-38 -15 -104 -59 -104 -69 0 -5 -5 -8 -11 -8 -7 0 -9 10
-6 26 8 42 -15 54 -101 54 -42 0 -83 -4 -90 -8 -9 -7 -12 -92 -10 -393 l3
-384 94 -3 c69 -2 97 1 102 10 5 7 8 123 8 258 0 135 4 257 9 270 27 69 130
102 200 66 59 -30 62 -50 65 -329 2 -139 6 -258 11 -265 9 -15 173 -15 182 0
4 5 5 107 5 226 -2 249 6 306 50 348 23 22 40 29 89 32 66 5 97 -8 127 -55 16
-24 19 -61 23 -293 l5 -265 95 0 95 0 0 295 c0 339 -4 359 -80 429 -50 46
-122 71 -204 71 -83 0 -124 -15 -181 -67 l-52 -47 -20 27 c-11 15 -40 39 -65
54 -38 22 -61 27 -127 30 -48 1 -94 -2 -112 -10z"/>
<path d="M8362 5878 l3 -393 100 0 100 0 0 390 0 390 -103 3 -102 3 2 -393z"/>
<path d="M5270 5167 c-188 -56 -318 -181 -380 -366 -26 -79 -29 -245 -5 -334
38 -143 140 -276 264 -341 206 -108 491 -84 684 59 l47 35 -2 238 -3 237 -230
0 -230 0 -3 -78 c-2 -50 1 -84 9 -93 9 -11 41 -14 135 -14 l124 0 0 -88 c0
-102 -4 -109 -85 -138 -76 -27 -254 -26 -316 2 -107 50 -169 140 -187 274 -31
225 96 403 309 435 66 10 163 -11 256 -56 45 -21 86 -39 92 -39 6 0 29 32 52
71 33 54 40 75 33 88 -16 25 -185 106 -249 119 -94 19 -229 14 -315 -11z"/>
<path d="M8282 5158 c-7 -10 -208 -528 -381 -988 -12 -30 -21 -63 -21 -72 0
-22 43 -30 135 -26 l69 3 37 95 c20 52 42 107 49 123 l12 27 203 0 c150 0 205
-3 212 -12 5 -7 24 -53 42 -103 52 -142 44 -135 161 -135 88 0 100 2 100 17 0
13 -317 854 -396 1051 l-13 32 -99 0 c-68 0 -103 -4 -110 -12z m181 -451 c37
-111 67 -205 67 -209 0 -5 -65 -8 -145 -8 -114 0 -145 3 -145 13 0 8 11 40 23
73 13 32 45 121 72 197 26 75 50 137 54 137 3 0 36 -91 74 -203z"/>
<path d="M9002 4623 l3 -548 95 0 95 0 0 545 0 545 -98 3 -97 3 2 -548z"/>
<path d="M3310 5018 c-84 -43 -117 -127 -82 -209 20 -47 20 -50 2 -96 -25 -68
-35 -326 -15 -383 16 -46 114 -162 128 -153 6 3 7 2 4 -4 -3 -5 0 -22 8 -37 8
-14 10 -24 6 -22 -5 3 -1 -10 7 -29 9 -19 17 -33 18 -32 0 1 -3 61 -7 134 -6
101 -13 141 -28 171 -19 36 -20 51 -13 168 5 71 13 137 19 148 7 12 24 20 52
22 179 16 220 251 57 325 -55 25 -102 24 -156 -3z m124 -114 c21 -20 20 -58 0
-79 -25 -24 -75 -16 -93 16 -13 24 -13 29 2 53 20 30 66 35 91 10z m-74 -599
c0 -5 -5 -3 -10 5 -5 8 -10 20 -10 25 0 6 5 3 10 -5 5 -8 10 -19 10 -25z m-93
-22 c0 -9 -4 -10 -14 -2 -7 6 -13 12 -13 14 0 1 6 2 13 2 8 0 14 -6 14 -14z
m43 -33 c0 -5 -5 -10 -11 -10 -5 0 -7 5 -4 10 3 6 8 10 11 10 2 0 4 -4 4 -10z
m47 4 c-3 -3 -12 -4 -19 -1 -8 3 -5 6 6 6 11 1 17 -2 13 -5z m-17 -44 c0 -5
-5 -10 -11 -10 -5 0 -7 5 -4 10 3 6 8 10 11 10 2 0 4 -4 4 -10z"/>
<path d="M2378 4970 c-80 -43 -112 -149 -69 -227 35 -62 82 -87 163 -89 l69
-1 98 -114 c54 -63 101 -122 104 -132 4 -10 7 -84 7 -165 1 -176 8 -195 108
-300 71 -74 106 -99 117 -82 3 5 15 10 26 10 10 0 19 6 19 14 0 9 7 12 20 9
12 -3 20 0 20 6 0 7 -4 9 -10 6 -5 -3 -10 3 -10 14 0 12 5 21 11 21 5 0 7 -4
4 -10 -3 -5 -1 -10 4 -10 24 0 7 23 -80 112 -50 51 -95 102 -99 114 -5 12 -9
83 -9 158 -1 92 -6 147 -15 169 -18 43 -95 129 -108 120 -7 -3 -8 -1 -4 6 4 7
-16 38 -51 78 l-58 66 -1 69 c-1 61 -5 74 -31 106 -56 71 -149 92 -225 52z
m120 -106 c26 -18 28 -50 5 -76 -20 -22 -51 -23 -75 -1 -22 20 -23 51 -1 75
20 22 42 23 71 2z m277 -594 c3 -5 1 -10 -4 -10 -6 0 -11 5 -11 10 0 6 2 10 4
10 3 0 8 -4 11 -10z m20 -36 c-9 -9 -14 -22 -12 -28 3 -6 -1 -17 -9 -23 -10
-10 -12 -8 -11 10 2 23 25 57 40 57 5 0 1 -7 -8 -16z m19 -39 c-4 -8 -8 -15
-10 -15 -2 0 -4 7 -4 15 0 8 4 15 10 15 5 0 7 -7 4 -15z m43 -14 c-1 -15 -4
-17 -14 -9 -15 12 -17 22 -3 13 6 -3 10 -1 10 4 0 6 2 11 4 11 3 0 4 -9 3 -19z
m-13 -26 c11 -8 15 -15 10 -15 -6 0 -19 7 -30 15 -10 8 -14 14 -9 14 6 0 19
-6 29 -14z m-34 -21 c0 -8 -32 -33 -42 -34 -5 0 -8 5 -8 10 0 6 7 10 15 10 8
0 15 5 15 10 0 6 5 10 10 10 6 0 10 -3 10 -6z m65 -25 c-4 -5 -12 -9 -18 -8
-9 0 -8 2 1 6 6 2 9 10 6 15 -4 7 -2 8 5 4 6 -4 9 -12 6 -17z m-51 -20 c-3 -5
-13 -8 -21 -7 -9 2 -18 -3 -20 -10 -3 -8 1 -10 11 -6 12 4 15 2 10 -9 -3 -10
1 -17 13 -20 14 -4 14 -5 2 -6 -9 0 -24 8 -34 19 -14 16 -15 23 -6 34 7 8 20
12 28 9 12 -5 14 -3 8 7 -5 9 -4 11 4 6 6 -4 9 -12 5 -17z m53 -11 c-15 -8
-16 -12 -5 -25 12 -14 11 -15 -8 -3 -22 14 -29 44 -8 36 8 -3 16 -1 20 5 3 6
9 7 12 4 4 -4 -1 -11 -11 -17z m52 -34 c-6 -8 -15 -12 -18 -8 -3 4 0 9 7 11 6
3 9 10 6 15 -4 7 -2 8 5 4 9 -6 9 -11 0 -22z m65 -43 c21 -22 35 -44 31 -50
-3 -6 -10 -9 -15 -6 -11 7 -20 -7 -22 -39 -3 -29 -13 -34 -22 -10 -3 8 -2 12
4 9 6 -3 10 3 10 14 0 11 5 23 11 27 8 4 7 9 -2 15 -11 7 -10 9 5 9 15 0 16 3
6 15 -13 15 -35 21 -26 7 2 -4 0 -14 -6 -22 -8 -13 -9 -12 -5 2 6 18 -19 45
-30 34 -4 -4 -1 -11 7 -16 8 -6 11 -10 6 -10 -4 0 -1 -11 8 -25 22 -34 20 -36
-14 -19 -16 9 -30 20 -30 25 0 6 5 7 10 4 6 -3 10 1 10 11 0 14 -3 14 -15 4
-9 -7 -19 -9 -23 -5 -4 4 -1 10 6 12 6 3 12 9 12 15 0 6 -7 7 -16 4 -9 -3 -12
-2 -9 5 4 5 15 7 25 4 11 -3 20 0 24 10 8 23 18 19 60 -24z m-124 13 c0 -13
-3 -14 -14 -5 -23 19 -26 -11 -4 -34 16 -16 18 -17 13 -2 -4 10 -2 17 4 17 6
0 11 -7 11 -15 0 -8 4 -15 9 -15 5 0 11 -9 14 -21 3 -13 1 -19 -6 -16 -7 2
-12 10 -12 18 -1 8 -6 13 -12 12 -7 -2 -24 12 -38 29 -25 30 -26 33 -9 39 31
12 44 10 44 -7z m84 -124 c15 -30 15 -32 1 -15 -9 11 -19 19 -23 18 -7 -3 -7
1 -3 29 1 15 5 10 25 -32z m76 28 c0 -4 -4 -8 -9 -8 -5 0 -12 -8 -14 -17 -3
-12 -5 -9 -6 8 -1 17 4 26 14 26 8 0 15 -4 15 -9z"/>
<path d="M2952 4016 c7 -8 15 -12 17 -11 5 6 -10 25 -20 25 -5 0 -4 -6 3 -14z"/>
<path d="M6297 4889 c-102 -24 -200 -107 -253 -214 -31 -63 -37 -86 -42 -163
-8 -144 27 -249 114 -342 115 -123 324 -146 510 -56 38 18 77 42 87 54 23 25
16 40 -47 101 l-46 45 -22 -21 c-40 -36 -91 -56 -159 -61 -127 -9 -210 46
-234 155 l-7 33 284 2 283 3 -1 85 c-2 102 -27 176 -84 248 -87 111 -243 164
-383 131z m163 -191 c40 -21 110 -96 110 -119 0 -5 -39 -9 -87 -9 -49 0 -132
-3 -185 -7 l-97 -6 10 38 c15 55 37 83 78 105 49 26 117 25 171 -2z"/>
<path d="M7200 4873 c-25 -9 -63 -29 -85 -45 l-40 -29 -5 33 -5 33 -98 3 -97
3 2 -398 3 -398 95 0 95 0 5 267 c5 249 6 268 26 294 35 47 70 67 126 71 66 5
114 -18 143 -67 18 -32 20 -57 25 -300 l5 -265 95 0 95 0 0 315 0 315 -27 47
c-54 91 -143 139 -257 137 -31 0 -76 -8 -101 -16z"/>
<path d="M3460 4121 c0 -5 7 -12 16 -15 14 -5 15 -4 4 9 -14 17 -20 19 -20 6z"/>
<path d="M3496 4118 c3 -5 10 -6 15 -3 13 9 11 12 -6 12 -8 0 -12 -4 -9 -9z"/>
<path d="M3296 4077 c3 -10 9 -15 12 -12 3 3 0 11 -7 18 -10 9 -11 8 -5 -6z"/>
<path d="M3454 4071 c9 -10 14 -21 11 -24 -3 -4 -2 -5 2 -2 15 12 10 33 -9 38
-18 5 -19 4 -4 -12z"/>
<path d="M3402 4065 c3 -3 16 -8 28 -10 12 -2 20 -1 16 2 -4 4 -16 8 -28 10
-12 2 -19 1 -16 -2z"/>
<path d="M3275 4050 c3 -5 8 -10 11 -10 2 0 4 5 4 10 0 6 -5 10 -11 10 -5 0
-7 -4 -4 -10z"/>
<path d="M3315 4049 c-4 -6 -4 -13 -1 -16 3 -4 6 -1 6 6 0 7 5 9 12 5 7 -4 8
-3 4 4 -9 15 -13 15 -21 1z"/>
<path d="M3341 4029 c-13 -10 -19 -19 -15 -19 13 1 48 29 43 34 -2 2 -15 -4
-28 -15z"/>
<path d="M3282 4010 c13 -20 38 -35 38 -22 -1 12 -24 37 -38 40 -10 2 -10 -2
0 -18z"/>
<path d="M3448 3993 c5 -37 14 -37 18 1 1 14 -3 27 -10 29 -8 3 -11 -6 -8 -30z"/>
<path d="M3530 4001 c0 -25 6 -27 13 -6 4 8 2 17 -3 20 -6 4 -10 -3 -10 -14z"/>
<path d="M3400 3986 c0 -9 5 -16 10 -16 6 0 10 4 10 9 0 6 -4 13 -10 16 -5 3
-10 -1 -10 -9z"/>
<path d="M3580 3961 c0 -6 4 -13 10 -16 6 -3 7 1 4 9 -7 18 -14 21 -14 7z"/>
<path d="M3201 3911 c-9 -6 -10 -11 -2 -15 13 -8 31 1 31 15 0 11 -11 11 -29
0z"/>
<path d="M3070 3900 c0 -5 5 -10 11 -10 5 0 7 5 4 10 -3 6 -8 10 -11 10 -2 0
-4 -4 -4 -10z"/>
<path d="M3273 3899 c25 -15 21 -29 -10 -29 -30 0 -27 -9 5 -15 22 -4 34 8 39
35 1 11 -7 16 -25 18 -23 1 -24 0 -9 -9z"/>
<path d="M3111 3897 c2 -1 13 -9 24 -17 19 -14 19 -14 6 3 -7 9 -18 17 -24 17
-6 0 -8 -1 -6 -3z"/>
<path d="M3042 3874 c10 -9 58 -12 52 -3 -3 5 -17 9 -31 9 -15 0 -24 -3 -21
-6z"/>
<path d="M3023 3845 c0 -11 4 -12 14 -4 7 6 13 13 13 15 0 2 -6 4 -13 4 -8 0
-14 -7 -14 -15z"/>
<path d="M2993 3838 c7 -21 -3 -23 -23 -5 -8 6 -6 2 5 -11 11 -13 21 -19 23
-13 2 6 9 8 15 4 7 -4 5 2 -3 13 -22 29 -24 30 -17 12z"/>
<path d="M3042 3817 c-8 -10 -6 -13 11 -14 12 0 16 1 9 4 -6 3 -10 9 -6 14 8
14 -2 11 -14 -4z"/>
<path d="M3110 3799 c0 -5 5 -7 10 -4 6 3 10 8 10 11 0 2 -4 4 -10 4 -5 0 -10
-5 -10 -11z"/>
<path d="M3005 3790 c-4 -6 -4 -14 -1 -17 3 -4 6 -2 6 4 0 8 8 8 25 0 37 -18
30 -29 -12 -22 -30 4 -33 3 -16 -4 12 -5 39 -10 61 -9 40 0 40 1 30 29 -11 33
-23 40 -15 9 3 -11 1 -20 -4 -20 -5 0 -9 5 -9 10 0 6 -8 10 -18 10 -10 0 -23
5 -29 11 -8 8 -13 8 -18 -1z"/>
</g>
</svg>
